<svg width="112" height="48" viewBox="0 0 112 48" fill="none" xmlns="http://www.w3.org/2000/svg">
<g clip-path="url(#clip0_6511_12352)">
<path d="M68.0707 11.9141V15.816H57.8515V21.9917H65.6819V25.8196H57.8515V35.9982H52.937V11.9141H68.0707Z" fill="#53169C"/>
<path d="M76.0585 32.1703H84.1353V35.9982H71.144V11.9141H76.0585V32.1703Z" fill="#53169C"/>
<path d="M91.3359 11.9141V35.9982H86.4214V11.9141H91.3359Z" fill="#53169C"/>
<path d="M111.069 22.9941C110.446 24.1243 109.474 25.0325 108.153 25.7187C106.832 26.4116 105.162 26.7547 103.15 26.7547H99.0429V36.0049H94.1284V11.9141H103.15C105.046 11.9141 106.661 12.237 107.996 12.8828C109.331 13.5286 110.33 14.4099 111.001 15.5401C111.665 16.6703 112 17.9418 112 19.368C112 20.6597 111.692 21.8639 111.069 22.9941ZM105.963 21.9379C106.62 21.3257 106.949 20.4713 106.949 19.368C106.949 17.0202 105.614 15.8496 102.944 15.8496H99.0498V22.8528H102.944C104.3 22.8528 105.306 22.5501 105.963 21.9379Z" fill="#53169C"/>
<path d="M0 35.9983V12.0017L21.1502 0L42.3003 12.0017V36.0051L21.1502 48.0067L0 35.9983Z" fill="url(#paint0_linear_6511_12352)"/>
<path d="M21.4717 7.13086L6.61182 15.567V32.4393L21.4717 40.8755L36.3315 32.4393V15.567L21.4717 7.13086ZM32.1631 17.5785L21.766 23.0277L11.1156 17.4103L21.4854 11.5171L32.1631 17.5718V17.5785ZM21.4717 36.496L10.4722 30.2462V21.366L21.7455 27.3063L32.478 21.689V30.2395L21.4785 36.4892L21.4717 36.496Z" fill="white"/>
<path d="M25.0653 28.0859V31.6649L21.7593 33.4073L17.8989 31.3756V27.7832L21.7593 29.8149L25.0653 28.0859Z" fill="white"/>
</g>
<defs>
<linearGradient id="paint0_linear_6511_12352" x1="-3.36075" y1="10.9791" x2="48.0042" y2="39.2236" gradientUnits="userSpaceOnUse">
<stop stop-color="#FF5F3D"/>
<stop offset="0.55" stop-color="#53169C"/>
<stop offset="1" stop-color="#1664DF"/>
</linearGradient>
<clipPath id="clip0_6511_12352">
<rect width="112" height="48" fill="white"/>
</clipPath>
</defs>
</svg>
